# Blender 3.6.0
# www.blender.org
o back_wall
v -0.990000 1.010000 0.000000
v -0.990000 -1.000000 0.000000
v 1.040000 -1.000000 -0.000000
v 1.040000 0.990000 -0.000000
v -0.990000 -1.000000 1.990000
v 1.040000 -1.000000 1.990000
v 1.040000 1.020000 1.990000
v -0.990000 1.020000 1.990000
vn -0.0000 -0.0000 1.0000
vn -0.0000 -0.0000 -1.0000
vn -1.0000 -0.0000 -0.0000
vt 0.248947 0.000061
vt 0.254522 0.498443
vt 0.000061 0.249563
vt 0.497826 0.748576
vt 0.999934 0.749196
vt 0.749810 0.999939
vt 0.747950 0.497833
vt 0.500931 0.251424
s 0
f 2/1/1 4/2/1 1/3/1
f 7/4/2 5/5/2 8/6/2
f 4/2/3 6/7/3 7/4/3
f 2/1/1 3/8/1 4/2/1
f 7/4/2 6/7/2 5/5/2
f 4/2/3 3/8/3 6/7/3
