# Blender 3.6.0
# www.blender.org
o left_box
v -0.090000 0.530000 1.200000
v 0.490000 0.710000 -0.000000
v 0.490000 0.710000 1.200000
v 0.670000 0.140000 -0.000000
v 0.670000 0.140000 1.200000
v 0.090000 -0.040000 1.200000
v 0.090000 -0.040000 -0.000000
v -0.090000 0.530000 0.000000
vn -0.0000 -0.0000 1.0000
vn -0.2964 0.9551 -0.0000
vn 0.9536 0.3011 -0.0000
vn 0.2964 -0.9551 -0.0000
vn -0.9536 -0.3011 -0.0000
vt 0.747179 0.501235
vt 0.498121 0.753037
vt 0.498122 0.500000
vt -0.000000 0.000000
vt 0.253037 0.500000
vt 0.000000 0.500000
vt -0.000000 0.500000
vt 0.249061 1.000000
vt 0.000000 1.000000
vt 0.753037 -0.000000
vt 0.253037 0.253037
vt 0.253037 0.000000
vt 0.498122 1.000000
vt 0.249061 0.500000
vt 0.498122 0.500000
vt 0.747179 0.754272
vt 0.253037 -0.000000
vt 0.249061 0.500000
vt 0.753037 0.253037
vt 0.249061 1.000000
s 0
f 6/1/1 3/2/1 1/3/1
f 1/4/2 2/5/2 8/6/2
f 3/7/3 4/8/3 2/9/3
f 5/10/4 7/11/4 4/12/4
f 6/13/5 8/14/5 7/15/5
f 6/1/1 5/16/1 3/2/1
f 1/4/2 3/17/2 2/5/2
f 3/7/3 5/18/3 4/8/3
f 5/10/4 6/19/4 7/11/4
f 6/13/5 1/20/5 8/14/5
