# Blender 3.6.0
# www.blender.org
o right_box
v -0.750000 -0.530000 0.600000
v -0.170000 -0.700000 0.600000
v 0.000000 -0.130000 0.600000
v -0.570000 0.050000 0.600000
v 0.000000 -0.130000 0.000000
v -0.570000 0.050000 0.000000
v -0.750000 -0.530000 0.000000
v -0.170000 -0.700000 0.000000
vn -0.0000 -0.0000 1.0000
vn 0.3011 0.9536 -0.0000
vn -0.9551 0.2964 -0.0000
vn -0.2813 -0.9596 -0.0000
vn 0.9583 -0.2858 -0.0000
vt 0.000000 0.000000
vt 0.333456 0.337130
vt 0.000000 0.338784
vt 0.334717 0.338784
vt 0.668177 0.673501
vt 0.334717 0.673501
vt 0.671848 0.000000
vt 0.337130 0.338784
vt 0.337130 0.000000
vt 0.000000 0.675956
vt 0.334717 0.338784
vt 0.334717 0.675956
vt 1.000000 0.673501
vt 0.668177 0.338784
vt 1.000000 0.338784
vt 0.337130 0.005328
vt 0.668177 0.338784
vt 0.671848 0.338784
vt 0.000000 0.338784
s 0
f 1/1/1 3/2/1 4/3/1
f 4/4/2 5/5/2 6/6/2
f 1/7/3 6/8/3 7/9/3
f 2/10/4 7/11/4 8/12/4
f 3/13/5 8/14/5 5/15/5
f 1/1/1 2/16/1 3/2/1
f 4/4/2 3/17/2 5/5/2
f 1/7/3 4/18/3 6/8/3
f 2/10/4 1/19/4 7/11/4
f 3/13/5 2/5/5 8/14/5
